<svg xmlns="http://www.w3.org/2000/svg" width="64" height="64" viewBox="0 0 64 64">
  <rect width="64" height="64" rx="14" fill="#FFFBF0"/>
  <polygon points="32,15 7,27 32,39 57,27" fill="#FAE3A0" stroke="#E8B840" stroke-width="1"/>
  <polygon points="32,39 7,27 7,39 32,51" fill="#FDF0C4"/>
  <polygon points="32,39 57,27 57,39 32,51" fill="#FBEAB0"/>
  <circle cx="21" cy="25" r="2" fill="#B8860B"/>
  <circle cx="32" cy="21" r="2" fill="#B8860B"/>
  <circle cx="43" cy="25" r="2" fill="#B8860B"/>
  <line x1="21" y1="25" x2="32" y2="21" stroke="#B8860B" stroke-width="1" opacity="0.7"/>
  <line x1="32" y1="21" x2="43" y2="25" stroke="#B8860B" stroke-width="1" opacity="0.7"/>
  <line x1="21" y1="25" x2="29" y2="28" stroke="#B8860B" stroke-width="1" opacity="0.5"/>
  <circle cx="29" cy="28" r="1.3" fill="#D4A017"/>
  <line x1="43" y1="25" x2="37" y2="28" stroke="#B8860B" stroke-width="1" opacity="0.5"/>
  <circle cx="37" cy="28" r="1.3" fill="#D4A017"/>
  <line x1="57" y1="27" x2="57" y2="37" stroke="#B8860B" stroke-width="1.3"/>
  <circle cx="57" cy="37" r="2.5" fill="#B8860B"/>
</svg>